{"title":"The.Fox.2017.HDRip.XviD.AC3.LLG","magnet":"magnet:?xt=urn:btih:e2f3e2f574b331353f7452f59bfe303153c16a60&dn=The.Fox.2017.HDRip.XviD.AC3.LLG&tr=udp%3A%2F%2Ftracker.leechers-paradise.org%3A6969&tr=udp%3A%2F%2Fzer0day.ch%3A1337&tr=udp%3A%2F%2Fopen.demonii.com%3A1337&tr=udp%3A%2F%2Ftracker.coppersurfer.tk%3A6969&tr=udp%3A%2F%2Fexodus.desync.com%3A6969","uploader":"LifeLongg","categoryP":"video","categoryS":"movies","size":"1089380642","seeders":"4","leechers":"17","description":"******************************Screenshots:********************\r\n <a href=\"\nhttp://picserver4u.com/0926.html\" rel=\"nofollow\" target=\"_NEW\">\nhttp://picserver4u.com/0926.html</a>\r\n <a href=\"\nhttp://picserver4u.com/0927.html\" rel=\"nofollow\" target=\"_NEW\">\nhttp://picserver4u.com/0927.html</a>\r\n <a href=\"\nhttp://picserver4u.com/0928.html\" rel=\"nofollow\" target=\"_NEW\">\nhttp://picserver4u.com/0928.html</a>\r\n <a href=\"\nhttp://picserver4u.com/0929.html\" rel=\"nofollow\" target=\"_NEW\">\nhttp://picserver4u.com/0929.html</a>\r\n <a href=\"\nhttp://picserver4u.com/0930.html\" rel=\"nofollow\" target=\"_NEW\">\nhttp://picserver4u.com/0930.html</a>\r\n\r\n****************************************************************\r\n\r\nGeneral\r\nComplete name                            : The.Fox.2017.HDRip.XviD.AC3.LLG\r\nFormat                                   : MPEG-4\r\nFormat profile                           : Base Media\r\nCodec ID                                 : isom (isom/iso2/avc1/mp41)\r\nFile size                                : 1.01 GiB\r\nDuration                                 : 1 h 40 min\r\nOverall bit rate                         : 1 433 kb/s\r\nWriting application                      : Lavf57.56.101\r\n\r\nVideo\r\nID                                       : 1\r\nFormat                                   : AVC\r\nFormat/Info                              : Advanced Video Codec\r\nFormat profile                           : <a href=\"/cdn-cgi/l/email-protection\" class=\"__cf_email__\" data-cfemail=\"0e466769664e423d\">[email&#xA0;protected]</a>\r\nFormat settings                          : CABAC / 4 Ref Frames\r\nFormat settings, CABAC                   : Yes\r\nFormat settings, RefFrames               : 4 frames\r\nCodec ID                                 : avc1\r\nCodec ID/Info                            : Advanced Video Coding\r\nDuration                                 : 1 h 40 min\r\nBit rate                                 : 1 200 kb/s\r\nWidth                                    : 720 pixels\r\nHeight                                   : 304 pixels\r\nDisplay aspect ratio                     : 2.35:1\r\nFrame rate mode                          : Constant\r\nFrame rate                               : 25.000 FPS\r\nColor space                              : YUV\r\nChroma subsampling                       : 4:2:0\r\nBit depth                                : 8 bits\r\nScan type                                : Progressive\r\nBits/(Pixel*Frame)                       : 0.219\r\nStream size                              : 843 MiB (82%)\r\n\r\nAudio\r\nID                                       : 2\r\nFormat                                   : AC-3\r\nFormat/Info                              : Audio Coding 3\r\nCodec ID                                 : ac-3\r\nDuration                                 : 1 h 40 min\r\nBit rate mode                            : Constant\r\nBit rate                                 : 256 kb/s\r\nChannel(s)                               : 6 channels\r\nChannel positions                        : Front: L C R, Side: L R, LFE\r\nSampling rate                            : 48.0 kHz\r\nFrame rate                               : 31.250 FPS (1536 SPF)\r\nBit depth                                : 16 bits\r\nCompression mode                         : Lossy\r\nStream size                              : 184 MiB (18%)\r\nService kind                             : Complete Main\r\nDefault                                  : Yes\r\nAlternate group                          : 1","last_updated":"2017-12-19T12:03:39.110Z","parsed":{"xt":"urn:btih:e2f3e2f574b331353f7452f59bfe303153c16a60","dn":"The.Fox.2017.HDRip.XviD.AC3.LLG","tr":["udp://exodus.desync.com:6969","udp://open.demonii.com:1337","udp://tracker.coppersurfer.tk:6969","udp://tracker.leechers-paradise.org:6969","udp://zer0day.ch:1337"],"infoHash":"e2f3e2f574b331353f7452f59bfe303153c16a60","infoHashBuffer":{"type":"Buffer","data":[226,243,226,245,116,179,49,53,63,116,82,245,155,254,48,49,83,193,106,96]},"name":"The.Fox.2017.HDRip.XviD.AC3.LLG","announce":["udp://exodus.desync.com:6969","udp://open.demonii.com:1337","udp://tracker.coppersurfer.tk:6969","udp://tracker.leechers-paradise.org:6969","udp://zer0day.ch:1337"],"urlList":[]}}